<svg width="512" height="512" fill="none" xmlns="http://www.w3.org/2000/svg">
  <g filter="url(#Group_3__filter0_i_18:2)">
    <circle cx="256" cy="256" r="256" fill="#F72585"/>
  </g>
  <circle cx="256" cy="256" r="231" stroke="#F72585" stroke-opacity=".35" stroke-width="50"/>
  <path d="M300.564 285.332c0 2.883-.507 6.006-1.521 9.369-1.014 3.31-2.669 6.406-4.965 9.289-2.242 2.83-5.205 5.205-8.889 7.127-3.63 1.922-8.061 2.883-13.293 2.883H234.34c-2.883 0-6.006-.507-9.369-1.521-3.31-1.015-6.407-2.643-9.289-4.885-2.83-2.296-5.205-5.259-7.127-8.889-1.922-3.684-2.883-8.141-2.883-13.373 0-2.883.507-6.006 1.521-9.369 1.015-3.363 2.643-6.46 4.885-9.289 2.296-2.883 5.259-5.285 8.889-7.207 3.683-1.922 8.141-2.883 13.373-2.883h37.556v19.859H234.34c-2.83 0-5.018.881-6.567 2.643-1.548 1.708-2.322 3.844-2.322 6.406 0 2.723.881 4.858 2.643 6.406 1.815 1.495 3.95 2.243 6.406 2.243h37.396c2.83 0 5.019-.855 6.567-2.563 1.548-1.708 2.322-3.844 2.322-6.406v-29.068c0-2.723-.854-4.885-2.562-6.487-1.655-1.601-3.764-2.402-6.327-2.402h-45.724v-19.779h45.724c2.883 0 5.98.507 9.29 1.521 3.363 1.014 6.459 2.669 9.289 4.965 2.882 2.242 5.285 5.205 7.207 8.889 1.922 3.63 2.882 8.061 2.882 13.293v29.228z" fill="#fff"/>
  <g filter="url(#Group_3__filter1_f_18:2)">
    <path d="M301.137 344.668c0-2.883-.507-6.006-1.522-9.369-1.014-3.31-2.669-6.406-4.965-9.289-2.242-2.83-5.205-5.205-8.888-7.127-3.63-1.922-8.061-2.883-13.293-2.883h-37.557c-2.883 0-6.006.507-9.369 1.521-3.31 1.015-6.406 2.643-9.289 4.885-2.83 2.296-5.205 5.259-7.127 8.889-1.922 3.684-2.883 8.141-2.883 13.373 0 2.883.507 6.006 1.522 9.369 1.014 3.363 2.642 6.46 4.884 9.289 2.296 2.883 5.259 5.285 8.889 7.207 3.684 1.922 8.141 2.883 13.373 2.883h37.557v-19.859h-37.557c-2.829 0-5.018-.881-6.566-2.643-1.548-1.708-2.323-3.844-2.323-6.406 0-2.723.881-4.858 2.643-6.406 1.815-1.495 3.951-2.243 6.406-2.243h37.397c2.829 0 5.018.855 6.566 2.563 1.548 1.708 2.322 3.844 2.322 6.406v29.068c0 2.723-.854 4.885-2.562 6.487-1.655 1.601-3.764 2.402-6.326 2.402h-45.725v19.779h45.725c2.883 0 5.979-.507 9.289-1.521 3.363-1.014 6.459-2.669 9.289-4.965 2.883-2.242 5.285-5.205 7.207-8.889 1.922-3.63 2.883-8.061 2.883-13.293v-29.228z" fill="url(#Group_3__paint0_linear_18_2)"/>
  </g>
  <defs>
    <filter id="Group_3__filter0_i_18:2" x="0" y="0" width="512" height="512" filterUnits="userSpaceOnUse" color-interpolation-filters="sRGB">
      <feFlood flood-opacity="0" result="BackgroundImageFix"/>
      <feBlend in="SourceGraphic" in2="BackgroundImageFix" result="shape"/>
      <feColorMatrix in="SourceAlpha" values="0 0 0 0 0 0 0 0 0 0 0 0 0 0 0 0 0 0 127 0" result="hardAlpha"/>
      <feMorphology radius="50" in="SourceAlpha" result="effect1_innerShadow_18:2"/>
      <feOffset/>
      <feGaussianBlur stdDeviation="50"/>
      <feComposite in2="hardAlpha" operator="arithmetic" k2="-1" k3="1"/>
      <feColorMatrix values="0 0 0 0 1 0 0 0 0 1 0 0 0 0 1 0 0 0 1 0"/>
      <feBlend in2="shape" result="effect1_innerShadow_18:2"/>
    </filter>
    <filter id="Group_3__filter1_f_18:2" x="203.244" y="313" width="100.893" height="92.564" filterUnits="userSpaceOnUse" color-interpolation-filters="sRGB">
      <feFlood flood-opacity="0" result="BackgroundImageFix"/>
      <feBlend in="SourceGraphic" in2="BackgroundImageFix" result="shape"/>
      <feGaussianBlur stdDeviation="1.5" result="effect1_foregroundBlur_18:2"/>
    </filter>
    <linearGradient id="Group_3__paint0_linear_18_2" x1="256" y1="478" x2="256" y2="269" gradientUnits="userSpaceOnUse">
      <stop offset=".286" stop-color="#B74E4E" stop-opacity="0"/>
      <stop offset=".729" stop-color="#fff" stop-opacity=".75"/>
      <stop offset="1" stop-color="#fff" stop-opacity=".75"/>
    </linearGradient>
  </defs>
</svg>
